<?xml version="1.0" standalone="no"?>
<!DOCTYPE svg PUBLIC "-//W3C//DTD SVG 20010904//EN"
 "http://www.w3.org/TR/2001/REC-SVG-20010904/DTD/svg10.dtd">
<svg version="1.0" xmlns="http://www.w3.org/2000/svg"
 width="16.000000pt" height="16.000000pt" viewBox="0 0 16.000000 16.000000"
 preserveAspectRatio="xMidYMid meet">
<metadata>
Created by potrace 1.11, written by Peter Selinger 2001-2013
</metadata>
<g transform="translate(0.000000,16.000000) scale(0.006154,-0.006154)"
fill="#000000" stroke="none">
<path d="M126 2584 c-44 -25 -84 -63 -106 -105 -19 -39 -20 -55 -20 -1181 0
-1131 1 -1143 21 -1185 22 -46 84 -107 100 -98 5 4 9 1 9 -4 0 -8 354 -11
1174 -11 l1174 0 43 32 c85 65 77 -53 78 1262 l1 1169 -21 34 c-24 38 -96 96
-110 87 -5 -3 -9 0 -9 5 0 8 -356 11 -1152 10 -1018 0 -1156 -2 -1182 -15z"/>
</g>
</svg>
